{
  "accessors": [
    {
      "bufferView": 2,
      "componentType": 5126,
      "count": 14,
      "max": [
        -0.01740800030529499,
        0.08870399743318558,
        1.9623340368270874
      ],
      "min": [
        -0.21371500194072723,
        -0.08870399743318558,
        1.6272159814834595
      ],
      "type": "VEC3"
    },
    {
      "bufferView": 2,
      "byteOffset": 168,
      "componentType": 5126,
      "count": 14,
      "max": [
        1.0,
        -0.0,
        0.980785608291626
      ],
      "min": [
        0.19508913159370422,
        -0.0,
        -0.5555680394172668
      ],
      "type": "VEC3"
    },
    {
      "bufferView": 1,
      "componentType": 5126,
      "count": 14,
      "max": [
        0.30660200119018555,
        0.9709110260009766
      ],
      "min": [
        0.023496000096201897,
        0.2486869990825653
      ],
      "type": "VEC2"
    },
    {
      "bufferView": 0,
      "componentType": 5125,
      "count": 36,
      "type": "SCALAR"
    },
    {
      "bufferView": 2,
      "byteOffset": 336,
      "componentType": 5126,
      "count": 328,
      "max": [
        -1.279589056968689,
        0.09971199929714203,
        2.791306972503662
      ],
      "min": [
        -2.191622018814087,
        -0.09971199929714203,
        2.253277063369751
      ],
      "type": "VEC3"
    },
    {
      "bufferView": 2,
      "byteOffset": 4272,
      "componentType": 5126,
      "count": 328,
      "max": [
        1.0,
        1.0,
        1.0
      ],
      "min": [
        -1.0,
        -1.0,
        -0.952570915222168
      ],
      "type": "VEC3"
    },
    {
      "bufferView": 1,
      "byteOffset": 112,
      "componentType": 5126,
      "count": 328,
      "max": [
        0.971688985824585,
        0.9803990125656128
      ],
      "min": [
        0.38586100935935974,
        0.4768970012664795
      ],
      "type": "VEC2"
    },
    {
      "bufferView": 0,
      "byteOffset": 144,
      "componentType": 5125,
      "count": 1224,
      "type": "SCALAR"
    },
    {
      "bufferView": 2,
      "byteOffset": 8208,
      "componentType": 5126,
      "count": 158,
      "max": [
        3.661942958831787,
        1.6311570405960083,
        2.118640899658203
      ],
      "min": [
        -2.1862380504608154,
        -1.6311570405960083,
        0.2552129924297333
      ],
      "type": "VEC3"
    },
    {
      "bufferView": 2,
      "byteOffset": 10104,
      "componentType": 5126,
      "count": 158,
      "max": [
        0.9941282272338867,
        0.42059797048568726,
        0.25057902932167053
      ],
      "min": [
        -1.0,
        -0.42059797048568726,
        -0.9996992945671082
      ],
      "type": "VEC3"
    },
    {
      "bufferView": 1,
      "byteOffset": 2736,
      "componentType": 5126,
      "count": 158,
      "max": [
        0.9815009832382202,
        0.41418299078941345
      ],
      "min": [
        0.3327319920063019,
        0.03221600130200386
      ],
      "type": "VEC2"
    },
    {
      "bufferView": 0,
      "byteOffset": 5040,
      "componentType": 5125,
      "count": 450,
      "type": "SCALAR"
    },
    {
      "bufferView": 2,
      "byteOffset": 12000,
      "componentType": 5126,
      "count": 1298,
      "max": [
        4.100069999694824,
        1.25,
        5.8003339767456055
      ],
      "min": [
        -2.628477096557617,
        -1.25,
        -0.3001979887485504
      ],
      "type": "VEC3"
    },
    {
      "bufferView": 2,
      "byteOffset": 27576,
      "componentType": 5126,
      "count": 1298,
      "max": [
        1.0,
        1.0,
        1.0
      ],
      "min": [
        -1.0,
        -1.0,
        -1.0
      ],
      "type": "VEC3"
    },
    {
      "bufferView": 3,
      "componentType": 5126,
      "count": 1298,
      "max": [
        0.9999991655349731,
        1.0,
        1.0,
        1.0
      ],
      "min": [
        -1.0,
        -1.0,
        -1.0,
        1.0
      ],
      "type": "VEC4"
    },
    {
      "bufferView": 1,
      "byteOffset": 4000,
      "componentType": 5126,
      "count": 1298,
      "max": [
        0.9958530068397522,
        0.9921479821205139
      ],
      "min": [
        0.005067000165581703,
        0.013016999699175358
      ],
      "type": "VEC2"
    },
    {
      "bufferView": 0,
      "byteOffset": 6840,
      "componentType": 5125,
      "count": 3372,
      "type": "SCALAR"
    },
    {
      "bufferView": 2,
      "byteOffset": 43152,
      "componentType": 5126,
      "count": 2073,
      "max": [
        3.7261099815368652,
        1.0404289960861206,
        3.061506986618042
      ],
      "min": [
        -2.184828996658325,
        -2.0919110774993896,
        1.0568410158157349
      ],
      "type": "VEC3"
    },
    {
      "bufferView": 2,
      "byteOffset": 68028,
      "componentType": 5126,
      "count": 2073,
      "max": [
        1.0,
        1.0,
        1.0
      ],
      "min": [
        -1.0,
        -1.0,
        -1.0
      ],
      "type": "VEC3"
    },
    {
      "bufferView": 3,
      "byteOffset": 20768,
      "componentType": 5126,
      "count": 2073,
      "max": [
        1.0,
        1.0,
        1.0,
        1.0
      ],
      "min": [
        -1.0,
        -1.0,
        -1.0,
        1.0
      ],
      "type": "VEC4"
    },
    {
      "bufferView": 1,
      "byteOffset": 14384,
      "componentType": 5126,
      "count": 2073,
      "max": [
        0.9928079843521118,
        0.9908379912376404
      ],
      "min": [
        0.006283999886363745,
        0.010421999730169773
      ],
      "type": "VEC2"
    },
    {
      "bufferView": 0,
      "byteOffset": 20328,
      "componentType": 5125,
      "count": 6114,
      "type": "SCALAR"
    },
    {
      "bufferView": 2,
      "byteOffset": 92904,
      "componentType": 5126,
      "count": 1682,
      "max": [
        3.661942958831787,
        2.255192995071411,
        3.619330883026123
      ],
      "min": [
        0.6259369850158691,
        -1.6311570405960083,
        0.2552129924297333
      ],
      "type": "VEC3"
    },
    {
      "bufferView": 2,
      "byteOffset": 113088,
      "componentType": 5126,
      "count": 1682,
      "max": [
        1.0,
        1.0,
        1.0
      ],
      "min": [
        -1.0,
        -1.0,
        -1.0
      ],
      "type": "VEC3"
    },
    {
      "bufferView": 3,
      "byteOffset": 53936,
      "componentType": 5126,
      "count": 1682,
      "max": [
        1.0,
        1.0,
        1.0,
        1.0
      ],
      "min": [
        -1.0,
        -1.0,
        -1.0,
        1.0
      ],
      "type": "VEC4"
    },
    {
      "bufferView": 1,
      "byteOffset": 30968,
      "componentType": 5126,
      "count": 1682,
      "max": [
        0.9968429803848267,
        0.9944689869880676
      ],
      "min": [
        0.005948999896645546,
        0.010641999542713165
      ],
      "type": "VEC2"
    },
    {
      "bufferView": 0,
      "byteOffset": 44784,
      "componentType": 5125,
      "count": 5358,
      "type": "SCALAR"
    }
  ],
  "asset": {
    "extras": {
      "author": "Phil_XG (https://sketchfab.com/phil_xg)",
      "license": "SKETCHFAB Standard (https://sketchfab.com/licenses)",
      "source": "https://sketchfab.com/3d-models/steampunk-sleigh-xmas-contest-f39d9351810c4327852e9e263be0285d",
      "title": "Steampunk Sleigh - Xmas Contest"
    },
    "generator": "Sketchfab-15.50.0",
    "version": "2.0"
  },
  "bufferViews": [
    {
      "buffer": 0,
      "byteLength": 66216,
      "name": "floatBufferViews",
      "target": 34963
    },
    {
      "buffer": 0,
      "byteLength": 44424,
      "byteOffset": 66216,
      "byteStride": 8,
      "name": "floatBufferViews",
      "target": 34962
    },
    {
      "buffer": 0,
      "byteLength": 133272,
      "byteOffset": 110640,
      "byteStride": 12,
      "name": "floatBufferViews",
      "target": 34962
    },
    {
      "buffer": 0,
      "byteLength": 80848,
      "byteOffset": 243912,
      "byteStride": 16,
      "name": "floatBufferViews",
      "target": 34962
    }
  ],
  "buffers": [
    {
      "byteLength": 324760,
      "uri": "scene.bin"
    }
  ],
  "extensionsUsed": [
    "KHR_materials_specular"
  ],
  "images": [
    {
      "uri": "textures/Sleigh_NoLight1_baseColor.png"
    },
    {
      "uri": "textures/Sleigh_NoLight3_baseColor.png"
    },
    {
      "uri": "textures/Sleigh_Sleigh_baseColor.jpeg"
    },
    {
      "uri": "textures/Sleigh_Sleigh_normal.png"
    },
    {
      "uri": "textures/Sleigh_Tech1_baseColor.jpeg"
    },
    {
      "uri": "textures/Sleigh_Tech1_normal.png"
    },
    {
      "uri": "textures/Sleigh_Tech2_baseColor.jpeg"
    },
    {
      "uri": "textures/Sleigh_Tech2_normal.png"
    }
  ],
  "materials": [
    {
      "doubleSided": true,
      "emissiveFactor": [
        0.3819108768217719,
        0.3819108768217719,
        0.3819108768217719
      ],
      "emissiveTexture": {
        "index": 0
      },
      "extensions": {
        "KHR_materials_specular": {
          "specularColorFactor": [
            1.0,
            1.0,
            1.0
          ],
          "specularFactor": 0.0
        }
      },
      "name": "Sleigh_NoLight1",
      "pbrMetallicRoughness": {
        "baseColorTexture": {
          "index": 0
        },
        "metallicFactor": 0.0,
        "roughnessFactor": 0.2
      }
    },
    {
      "doubleSided": true,
      "emissiveFactor": [
        1.0,
        0.41282798649999974,
        0.1980232713999999
      ],
      "extensions": {
        "KHR_materials_specular": {
          "specularColorFactor": [
            1.0,
            1.0,
            1.0
          ],
          "specularFactor": 0.0
        }
      },
      "name": "Sleigh_NoLight2",
      "pbrMetallicRoughness": {
        "baseColorFactor": [
          0.9911020971,
          0.9911020971,
          0.9911020971,
          1.0
        ],
        "metallicFactor": 0.0,
        "roughnessFactor": 0.2
      }
    },
    {
      "alphaMode": "BLEND",
      "doubleSided": true,
      "emissiveFactor": [
        0.9911020971,
        0.5375537055,
        0.0065120908
      ],
      "extensions": {
        "KHR_materials_specular": {
          "specularColorFactor": [
            1.0,
            1.0,
            1.0
          ],
          "specularFactor": 0.0
        }
      },
      "name": "Sleigh_NoLight3",
      "pbrMetallicRoughness": {
        "baseColorTexture": {
          "index": 1
        },
        "metallicFactor": 0.0,
        "roughnessFactor": 0.2
      }
    },
    {
      "doubleSided": true,
      "extensions": {
        "KHR_materials_specular": {
          "specularColorFactor": [
            1.0,
            1.0,
            1.0
          ],
          "specularFactor": 0.2
        }
      },
      "name": "Sleigh_Sleigh",
      "normalTexture": {
        "index": 3,
        "scale": 0.99
      },
      "pbrMetallicRoughness": {
        "baseColorTexture": {
          "index": 2
        },
        "metallicFactor": 0.0,
        "roughnessFactor": 0.2
      }
    },
    {
      "doubleSided": true,
      "extensions": {
        "KHR_materials_specular": {
          "specularColorFactor": [
            1.0,
            1.0,
            1.0
          ],
          "specularFactor": 0.1
        }
      },
      "name": "Sleigh_Tech1",
      "normalTexture": {
        "index": 5
      },
      "pbrMetallicRoughness": {
        "baseColorTexture": {
          "index": 4
        },
        "metallicFactor": 0.0,
        "roughnessFactor": 0.2
      }
    },
    {
      "doubleSided": true,
      "extensions": {
        "KHR_materials_specular": {
          "specularColorFactor": [
            1.0,
            1.0,
            1.0
          ],
          "specularFactor": 0.1
        }
      },
      "name": "Sleigh_Tech2",
      "normalTexture": {
        "index": 7
      },
      "pbrMetallicRoughness": {
        "baseColorTexture": {
          "index": 6
        },
        "metallicFactor": 0.0,
        "roughnessFactor": 0.2
      }
    }
  ],
  "meshes": [
    {
      "name": "Object_0",
      "primitives": [
        {
          "attributes": {
            "NORMAL": 1,
            "POSITION": 0,
            "TEXCOORD_0": 2
          },
          "indices": 3,
          "material": 0,
          "mode": 4
        }
      ]
    },
    {
      "name": "Object_1",
      "primitives": [
        {
          "attributes": {
            "NORMAL": 5,
            "POSITION": 4,
            "TEXCOORD_0": 6
          },
          "indices": 7,
          "material": 1,
          "mode": 4
        }
      ]
    },
    {
      "name": "Object_2",
      "primitives": [
        {
          "attributes": {
            "NORMAL": 9,
            "POSITION": 8,
            "TEXCOORD_0": 10
          },
          "indices": 11,
          "material": 2,
          "mode": 4
        }
      ]
    },
    {
      "name": "Object_3",
      "primitives": [
        {
          "attributes": {
            "NORMAL": 13,
            "POSITION": 12,
            "TANGENT": 14,
            "TEXCOORD_0": 15
          },
          "indices": 16,
          "material": 3,
          "mode": 4
        }
      ]
    },
    {
      "name": "Object_4",
      "primitives": [
        {
          "attributes": {
            "NORMAL": 18,
            "POSITION": 17,
            "TANGENT": 19,
            "TEXCOORD_0": 20
          },
          "indices": 21,
          "material": 4,
          "mode": 4
        }
      ]
    },
    {
      "name": "Object_5",
      "primitives": [
        {
          "attributes": {
            "NORMAL": 23,
            "POSITION": 22,
            "TANGENT": 24,
            "TEXCOORD_0": 25
          },
          "indices": 26,
          "material": 5,
          "mode": 4
        }
      ]
    }
  ],
  "nodes": [
    {
      "children": [
        1
      ],
      "matrix": [
        0.43478259444236755,
        0.0,
        0.0,
        0.0,
        0.0,
        9.654112941123562e-17,
        -0.43478259444236755,
        0.0,
        0.0,
        0.43478259444236755,
        9.654112941123562e-17,
        0.0,
        0.0,
        0.0,
        0.0,
        1.0
      ],
      "name": "Sketchfab_model"
    },
    {
      "children": [
        2,
        3,
        4,
        5,
        6,
        7
      ],
      "name": "Sleigh.unity_6.obj.cleaner"
    },
    {
      "mesh": 0,
      "name": "Object_2"
    },
    {
      "mesh": 1,
      "name": "Object_3"
    },
    {
      "mesh": 2,
      "name": "Object_4"
    },
    {
      "mesh": 3,
      "name": "Object_5"
    },
    {
      "mesh": 4,
      "name": "Object_6"
    },
    {
      "mesh": 5,
      "name": "Object_7"
    }
  ],
  "samplers": [
    {
      "magFilter": 9729,
      "minFilter": 9987,
      "wrapS": 33071,
      "wrapT": 33071
    }
  ],
  "scene": 0,
  "scenes": [
    {
      "name": "Sketchfab_Scene",
      "nodes": [
        0
      ]
    }
  ],
  "textures": [
    {
      "sampler": 0,
      "source": 0
    },
    {
      "sampler": 0,
      "source": 1
    },
    {
      "sampler": 0,
      "source": 2
    },
    {
      "sampler": 0,
      "source": 3
    },
    {
      "sampler": 0,
      "source": 4
    },
    {
      "sampler": 0,
      "source": 5
    },
    {
      "sampler": 0,
      "source": 6
    },
    {
      "sampler": 0,
      "source": 7
    }
  ]
}
